<?xml version="1.0" encoding="iso-8859-1"?>
<!-- Generator: Adobe Illustrator 19.0.0, SVG Export Plug-In . SVG Version: 6.00 Build 0)  -->
<svg version="1.1" id="Layer_1" xmlns="http://www.w3.org/2000/svg" xmlns:xlink="http://www.w3.org/1999/xlink" x="0px" y="0px"
	 viewBox="0 0 502 502" style="enable-background:new 0 0 502 502;" xml:space="preserve">
<g>
	<g>
		<g>
			<path d="M315.642,118.323h-12.365c-5.522,0-10,4.477-10,10s4.478,10,10,10h12.365c5.522,0,10-4.477,10-10
				S321.164,118.323,315.642,118.323z"/>
			<path d="M414.959,118.323h-64.752c-5.522,0-10,4.477-10,10s4.478,10,10,10h64.752c5.522,0,10-4.477,10-10
				S420.481,118.323,414.959,118.323z"/>
			<path d="M492,154.388h-34.354V92.004V44.335c0-5.523-4.478-10-10-10H10c-5.523,0-10,4.477-10,10v47.669v245.608
				c0,5.523,4.477,10,10,10h34.354v110.053c0,5.523,4.477,10,10,10H492c5.522,0,10-4.477,10-10V212.057v-47.669
				C502,158.865,497.522,154.388,492,154.388z M20,54.335h417.646v27.669H20V54.335z M44.354,164.388v47.669v115.556H20v-0.001
				V102.004h417.646v52.384H54.354C48.831,154.388,44.354,158.865,44.354,164.388z M482,447.665H64.354V337.612V222.057H482V447.665
				z M482,202.057H64.354v-27.669h383.292H482V202.057z"/>
			<path d="M347.631,258.375h111.682c5.522,0,10-4.477,10-10s-4.478-10-10-10H347.631c-5.522,0-10,4.477-10,10
				S342.108,258.375,347.631,258.375z"/>
			<path d="M347.631,305.981h111.682c5.522,0,10-4.477,10-10s-4.478-10-10-10H347.631c-5.522,0-10,4.477-10,10
				S342.108,305.981,347.631,305.981z"/>
			<path d="M347.631,354.161h10.896c5.522,0,10-4.477,10-10s-4.478-10-10-10h-10.896c-5.522,0-10,4.477-10,10
				S342.108,354.161,347.631,354.161z"/>
			<path d="M459.313,334.161H393.03c-5.522,0-10,4.477-10,10s4.478,10,10,10h66.282c5.522,0,10-4.477,10-10
				S464.835,334.161,459.313,334.161z"/>
			<path d="M102.977,423.793h196.032c5.522,0,10-4.477,10-10s-4.478-10-10-10H112.977V257.29c0-5.523-4.477-10-10-10
				s-10,4.477-10,10v156.503C92.977,419.316,97.454,423.793,102.977,423.793z"/>
		</g>
	</g>
</g>
<g>
</g>
<g>
</g>
<g>
</g>
<g>
</g>
<g>
</g>
<g>
</g>
<g>
</g>
<g>
</g>
<g>
</g>
<g>
</g>
<g>
</g>
<g>
</g>
<g>
</g>
<g>
</g>
<g>
</g>
</svg>
