<svg height="512pt" viewBox="-6 0 511 512" width="512pt" xmlns="http://www.w3.org/2000/svg"><path d="m490.332031 274.617188h-23.996093l-70.230469-44.949219c6.730469-5.707031 11.015625-14.214844 11.015625-23.707031 0-13.640626-8.835938-25.257813-21.082032-29.429688v-70.175781c0-.003907 0-.011719 0-.019531v-41.90625c0-5.523438-4.476562-10-10-10h-221.320312v-22.664063c0-17.515625-14.25-31.765625-31.765625-31.765625h-41.957031c-2.542969 0-5.066406 1.011719-6.90625 2.769531l-70.496094 67.308594c-.730469.695313-1.371094 1.53125-1.855469 2.414063-.789062 1.429687-1.238281 3.070312-1.238281 4.820312v72.730469c0 5.519531 4.476562 10 10 10h50.71875v36.355469h-31.71875c-5.523438 0-10 4.480468-10 10v295.601562c0 5.523438 4.476562 10 10 10s10-4.476562 10-10v-285.601562h21.71875v285.601562c0 5.4375 4.558594 10 10 10h73.5c5.523438 0 10-4.476562 10-10v-343.671875l211.320312-39.925781v66.476562c0 5.523438 4.476563 10 10 10 6.109376 0 11.082032 4.972656 11.082032 11.082032 0 6.105468-4.972656 11.078124-11.082032 11.078124-3.664062 0-7.085937-1.8125-9.160156-4.84375-3.117187-4.5625-9.339844-5.730468-13.898437-2.617187-4.558594 3.117187-5.730469 9.339844-2.613281 13.898437.988281 1.445313 2.089843 2.78125 3.28125 4.019532l-76.429688 47.121094h-22.65625c-5.523438 0-10 4.476562-10 10v49.019531c0 5.523437 4.476562 10 10 10h235.769531c5.523438 0 10-4.476563 10-10v-49.019531c0-5.523438-4.476562-10-10-10zm-355.613281 39.945312h-42l42-49.867188zm-53.5 20h42.003906l-42.003906 49.863281zm0-37.394531v-49.867188h42.003906zm0 124.652343h42.449219l-42.449219 52.082032zm11.5-20 42-49.867187v49.867187zm42-174.519531h-42l42-49.863281zm95.941406-142.511719 40.351563 31.214844-40.394531 7.632813zm-20.03125 27.824219-40.65625-38.1875h40.699219zm39.320313-38.183593h51.089843v35.898437l-3.761718.710937zm71.089843 9.609374 24.609376 17.863282-24.609376 4.648437zm45 7.949219-24.195312-17.558593h24.195312zm-243.085937-71.988281c6.488281 0 11.765625 5.277344 11.765625 11.765625v22.664063h-34.015625c-5.351563 0-9.707031-4.355469-9.707031-9.710938v-24.71875zm-102.453125 104.0625h29.859375c5.523437 0 10-4.480469 10-10 0-5.523438-4.476563-10-10-10h-29.859375v-16.75h29.859375c5.523437 0 10-4.476562 10-10s-4.476563-10-10-10h-14.90625l35.542969-33.9375v11.34375c0 16.382812 13.328125 29.710938 29.707031 29.710938h34.019531v65.613281h-114.222656zm102.722656 35.980469-42.003906 49.863281v-49.863281zm-30.953125 331.957031 42.449219-52.082031v52.082031zm62.449219-404.460938 44.703125 41.992188-44.703125 8.445312zm218.628906 151.308594 55.886719 35.769532h-113.90625zm106.984375 84.792969h-215.769531v-29.023437h215.769531zm0 0"/><path d="m458.839844 442.980469h-7.988282v-39.023438c0-5.519531-4.476562-10-10-10h-235.769531c-5.523437 0-10 4.480469-10 10v49.023438c0 5.519531 4.476563 10 10 10h7.988281v39.019531c0 5.523438 4.476563 10 10 10h235.769532c5.523437 0 10-4.476562 10-10v-49.019531c0-5.523438-4.476563-10-10-10zm-10 49.019531h-215.769532v-29.019531h9.238282c1.742187 0 3.378906-.449219 4.808594-1.234375 4.101562-2.242188 6.148437-7.285156 4.742187-11.75-1.292969-4.21875-5.269531-7.226563-9.910156-7.050782-.183594.003907-.367188.019532-.550781.035157h-26.316407v-29.023438h215.769531v29.023438h-97.628906c-.417968-.039063-.84375-.054688-1.273437-.035157-5.34375.191407-9.554688 4.546876-9.632813 9.839844-.105468 5.507813 4.472656 10.195313 9.992188 10.195313h116.53125zm0 0"/><path d="m296.6875 449.148438c-1.636719-3.925782-5.691406-6.457032-9.945312-6.144532-4.171876.300782-7.722657 3.238282-8.894532 7.230469-1.175781 3.988281.40625 8.464844 3.789063 10.871094 3.367187 2.390625 7.925781 2.460937 11.371093.183593 3.941407-2.605468 5.460938-7.792968 3.679688-12.140624zm0 0"/></svg>