<svg id="Capa_1" enable-background="new 0 0 512 512" height="512" viewBox="0 0 512 512" width="512" xmlns="http://www.w3.org/2000/svg"><g><path d="m106 512h226.11c24.55 0 45.294-17.57 49.338-41.864l7.576-48.101c.859-5.456-2.866-10.575-8.322-11.434-5.456-.86-10.574 2.867-11.434 8.323l-7.563 48.015c-2.417 14.521-14.863 25.061-29.595 25.061h-96.11v-50c0-5.523-4.477-10-10-10h-61.441l-26.875-172h256.618l-11.028 70.012c-.859 5.456 2.866 10.575 8.322 11.435 5.443.858 10.573-2.857 11.434-8.322l12.849-81.568c.455-2.889-.377-5.831-2.276-8.054-1.9-2.223-4.678-3.502-7.602-3.502h-30v-230.001c0-5.523-4.478-10-10-10h-100.001c-5.522 0-10 4.477-10 10v208.281l-46.178-114.297c-.489-1.21-1.206-2.308-2.119-3.243l-74.485-77.662c-2.825-2.946-7.157-3.881-10.948-2.357-3.788 1.522-6.27 5.195-6.27 9.278v107.63c-.008 1.293.232 2.59.734 3.828.002.005.003.01.005.014l40.131 98.528h-30.87c-2.922 0-5.697 1.278-7.597 3.498s-2.734 5.16-2.283 8.046l28.196 180.456h-18.316c-16.542 0-30 13.458-30 30v40c0 5.523 4.477 10 10 10zm48.258-393.194c-.001.003-.003.006-.004.009-3.113 7.339-10.634 11.557-18.254 11.095v-30.616c5.532-.803 10.962-2.268 16.227-4.393 5.184-2.095 10.042-4.761 14.523-7.965l21.204 22.107c-5.091 5.521-13.283 7.566-20.581 4.474-5.12-2.178-10.986.285-13.115 5.289zm43.364 8.373 45.583 112.821h-21.57l-42.557-105.322c6.723-.821 13.137-3.416 18.544-7.499zm78.378-107.179h80v20h-30c-5.522 0-10 4.477-10 10s4.478 10 10 10h30v20h-10c-5.522 0-10 4.477-10 10s4.478 10 10 10h10v20h-30c-5.522 0-10 4.477-10 10s4.478 10 10 10h30v20h-10c-5.522 0-10 4.477-10 10s4.478 10 10 10h10v20h-30c-5.522 0-10 4.477-10 10s4.478 10 10 10h30v20h-80zm-123.307 52.281c-2.51 1.58-5.164 2.947-7.956 4.075-2.853 1.151-5.772 2.026-8.737 2.636v-24.116zm-11.011 77.41c6.845-.822 13.341-3.424 18.84-7.55l39.542 97.859h-21.599zm74.318 342.309h-40v-40h40zm-100-30c0-5.514 4.486-10 10-10h29.955c.011 0 .021.001.032.001h.012v39.999h-40v-30z"/><circle cx="386" cy="376" r="10"/></g></svg>